# xmcd
#
# Track frame offsets: 
#        150
#        13457
#        26866
#        61300
#        97800
#        136201
#        169932
#
# Disc length: 2682 seconds
#
# Revision: 3
# Processed by: cddbd v1.5.1PL2 Copyright (c) Steve Scherf et al.
# Submitted via: ExactAudioCopy v0.95b3
#
DISCID=5a0a7807
DTITLE=Solu Music featuring KimBlee - Fade [UK]
DYEAR=2006
DGENRE=Club
TTITLE0=Fade [The Bimbo Jones Edit]
TTITLE1=Fade [Grant Nelson Big Room Remix (Edited)]
TTITLE2=Fade [Grant Nelson Big Room Remix]
TTITLE3=Fade [The Bimbo Jones Strings Remix]
TTITLE4=Fade [Original Part I]
TTITLE5=Fade [Original Part II]
TTITLE6=Video CD-ROM
EXTD=YEAR: 2006
EXTT0=
EXTT1=
EXTT2=
EXTT3=
EXTT4=
EXTT5=
EXTT6=
PLAYORDER=
